<?xml version="1.0" encoding="UTF-8" standalone="no"?>
<svg width="52px" height="52px" viewBox="0 0 52 52" version="1.1" xmlns="http://www.w3.org/2000/svg" xmlns:xlink="http://www.w3.org/1999/xlink" xmlns:sketch="http://www.bohemiancoding.com/sketch/ns">
    <!-- Generator: Sketch 3.3.1 (12002) - http://www.bohemiancoding.com/sketch -->
    <title>Oval 1 Copy + Oval 1 Copy Copy + instagram-6-icon</title>
    <desc>Created with Sketch.</desc>
    <defs>
        <circle id="path-1" cx="25.743999" cy="25.743999" r="24.96"></circle>
    </defs>
    <g id="Page-1" stroke="none" stroke-width="1" fill="none" fill-rule="evenodd" sketch:type="MSPage">
        <g id="Desktop-HD" sketch:type="MSArtboardGroup" transform="translate(-720.000000, -2878.000000)">
            <g id="Oval-1-Copy-+-Oval-1-Copy-+-facebook-icon-+-Brought-to-you-by-Le-+-Oval-1-Copy-+-Oval-1-Copy-Copy-+-instagram-6-icon" sketch:type="MSLayerGroup" transform="translate(526.000000, 2779.000000)">
                <g id="Group" transform="translate(0.500000, 0.000000)">
                    <g id="Oval-1-Copy-+-Oval-1-Copy-Copy-+-instagram-6-icon" transform="translate(193.000000, 99.000000)">
                        <g id="Oval-1-Copy-+-Oval-1-Copy-Copy" transform="translate(0.500000, 0.000000)">
                            <g id="Oval-1">
                                <use stroke="#979797" stroke-width="1" stroke-dasharray="4" sketch:type="MSShapeGroup" xlink:href="#path-1"></use>
                                <use stroke="none" xlink:href="#path-1"></use>
                            </g>
                        </g>
                        <path d="M33.0390281,24.6916538 L31.5589894,24.6916538 C31.6668078,25.1102602 31.7304756,25.5475997 31.7304756,25.9996286 C31.7304756,28.8889412 29.3887555,31.2305788 26.5000206,31.2305788 C23.6112857,31.2305788 21.2694831,28.8889412 21.2694831,25.9996286 C21.2694831,25.5475997 21.3333985,25.110219 21.4412169,24.6916538 L19.9611782,24.6916538 L19.9611782,31.8844218 C19.9611782,32.2451371 20.2539757,32.5376871 20.6155989,32.5376871 L32.3844011,32.5376871 C32.7461068,32.5376871 33.0389868,32.2451371 33.0389868,31.8844218 L33.0389868,24.6916538 L33.0390281,24.6916538 Z M33.0390281,20.1150831 C33.0390281,19.7540376 32.7461068,19.4612401 32.3844424,19.4612401 L30.4234086,19.4612401 C30.0621156,19.4612401 29.7695656,19.7540376 29.7695656,20.1150831 L29.7695656,22.0769009 C29.7695656,22.4376987 30.0621156,22.7307438 30.4234086,22.7307438 L32.3844424,22.7307438 C32.746148,22.7307438 33.0390281,22.4376987 33.0390281,22.0769009 L33.0390281,20.1150831 L33.0390281,20.1150831 Z M26.5000206,22.7307438 C24.694257,22.7307438 23.2306819,24.1940301 23.2306819,25.9996699 C23.2306819,27.8051447 24.6942983,29.2692974 26.5000206,29.2692974 C28.3056192,29.2692974 29.7695244,27.8051447 29.7695244,25.9996699 C29.7695244,24.1939888 28.3056192,22.7307438 26.5000206,22.7307438 L26.5000206,22.7307438 Z M33.0390281,34.5 L19.9611782,34.5 C18.8782069,34.5 17.9999794,33.6215661 17.9999794,32.5376871 L17.9999794,19.4612401 C17.9999794,18.3779387 18.8782069,17.5 19.9611782,17.5 L33.0389868,17.5 C34.1221232,17.5 35.0000206,18.3779387 35.0000206,19.4612401 L35.0000206,32.5376871 C35.0000619,33.6215661 34.1221644,34.5 33.0390281,34.5 L33.0390281,34.5 Z" id="instagram-6-icon" fill="#878787" sketch:type="MSShapeGroup"></path>
                    </g>
                </g>
            </g>
        </g>
    </g>
</svg>